name Walk5.mot
datacolumns 19
datarows 15
range 1.18000000 1.25000000
endheader

                time	   L_ground_force_vx	   L_ground_force_vy	   L_ground_force_vz	   L_ground_force_px	   L_ground_force_py	   L_ground_force_pz	   R_ground_force_vx	   R_ground_force_vy	   R_ground_force_vz	   R_ground_force_px	   R_ground_force_py	   R_ground_force_pz	   L_ground_torque_x	   L_ground_torque_y	   L_ground_torque_z	   R_ground_torque_x	   R_ground_torque_y	   R_ground_torque_z	
          1.18000000	         -0.00000000	         -0.00000001	          0.00000000	         -0.00000000	          0.00000000	         -0.00000000	         -3.94523795	         87.86901194	          8.56317684	         -0.00727390	          0.00000000	          0.00372586	          0.00000000	         -0.00000000	          0.00000000	          0.00000000	          0.10516028	          0.00000000	
          1.18500000	          0.00000000	         -0.00000002	          0.00000000	         -0.00000000	          0.00000000	         -0.00000000	        -10.94829489	        131.92626538	         10.59953078	         -0.07398217	          0.00000000	          0.07308692	          0.00000000	         -0.00000000	          0.00000000	          0.00000000	          0.11661986	          0.00000000	
          1.19000000	          0.00000000	         -0.00000003	          0.00000000	         -0.00000000	          0.00000000	         -0.00000000	        -18.40782735	        180.52377705	         12.71053023	         -0.13598065	          0.00000000	          0.13781400	          0.00000000	         -0.00000000	          0.00000000	          0.00000000	          0.13842521	          0.00000000	
          1.19500000	          0.00000000	         -0.00000004	          0.00000001	         -0.00000000	          0.00000000	         -0.00000000	        -26.14102627	        231.18677326	         14.62568883	         -0.18988057	          0.00000000	          0.19453149	          0.00000000	         -0.00000000	          0.00000000	          0.00000000	          0.17050449	          0.00000000	
          1.20000000	          0.00000000	         -0.00000005	          0.00000001	         -0.00000000	          0.00000000	         -0.00000000	        -34.17992781	        281.24265586	         15.94737728	         -0.23404051	          0.00000000	          0.24168255	          0.00000000	         -0.00000000	          0.00000000	          0.00000000	          0.21275386	          0.00000000	
          1.20500000	          0.00000000	         -0.00000006	          0.00000001	         -0.00000000	          0.00000000	         -0.00000000	        -42.74678235	        328.79536851	         16.24518347	         -0.26813754	          0.00000000	          0.27904291	          0.00000000	         -0.00000000	          0.00000000	          0.00000000	          0.26583537	          0.00000000	
          1.21000000	          0.00000001	         -0.00000008	          0.00000001	         -0.00000000	          0.00000000	         -0.00000000	        -52.07156883	        372.86831655	         15.19247259	         -0.29272777	          0.00000000	          0.30725513	          0.00000000	         -0.00000000	          0.00000000	          0.00000000	          0.33056636	          0.00000000	
          1.21500000	          0.00000001	         -0.00000009	          0.00000001	         -0.00000000	          0.00000000	         -0.00000000	        -62.24521638	        413.08966452	         12.64249170	         -0.30889344	          0.00000000	          0.32746178	          0.00000000	         -0.00000000	          0.00000000	          0.00000000	          0.40675537	          0.00000000	
          1.22000000	          0.00000001	         -0.00000009	          0.00000001	         -0.00000000	          0.00000000	         -0.00000000	        -73.15001017	        449.61237551	          8.63629441	         -0.31797959	          0.00000000	          0.34102859	          0.00000000	         -0.00000000	          0.00000000	          0.00000000	          0.49241075	          0.00000000	
          1.22500000	          0.00000001	         -0.00000009	          0.00000001	         -0.00000000	          0.00000000	         -0.00000000	        -84.48829776	        483.09860173	          3.36959157	         -0.32141072	          0.00000000	          0.34935041	          0.00000000	         -0.00000000	          0.00000000	          0.00000000	          0.58363003	          0.00000000	
          1.23000000	          0.00000001	         -0.00000008	          0.00000001	         -0.00000000	          0.00000000	         -0.00000000	        -95.90038633	        514.48247769	         -2.83845568	         -0.32057323	          0.00000000	          0.35372260	          0.00000000	         -0.00000000	          0.00000000	          0.00000000	          0.67390510	          0.00000000	
          1.23500000	          0.00000001	         -0.00000004	          0.00000000	          0.00000000	          0.00000000	          0.00000000	       -107.07456686	        544.58389162	         -9.56478985	         -0.31674465	          0.00000000	          0.35526735	          0.00000000	          0.00000000	          0.00000000	          0.00000000	          0.75374380	          0.00000000	
          1.24000000	          0.00000001	          0.00000001	         -0.00000001	          0.00000000	          0.00000000	          0.00000000	       -117.75089869	        573.83721603	        -16.31559448	         -0.31104384	          0.00000000	          0.35490544	          0.00000000	          0.00000000	          0.00000000	          0.00000000	          0.81111580	          0.00000000	
          1.24500000	          0.00000001	          0.00000009	         -0.00000002	          0.00000000	          0.00000000	          0.00000000	       -127.64668123	        602.36409020	        -22.60794211	         -0.30438792	          0.00000000	          0.35336007	          0.00000000	          0.00000000	          0.00000000	          0.00000000	          0.83434798	          0.00000000	
          1.25000000	          0.00000001	          0.00000021	         -0.00000004	          0.00000000	          0.00000000	          0.00000000	       -136.42790891	        630.24560601	        -28.06962772	         -0.29747994	          0.00000000	          0.35117567	          0.00000000	          0.00000000	          0.00000000	          0.00000000	          0.81638781	          0.00000000	
